<?xml version="1.0" standalone="no"?><svg xmlns="http://www.w3.org/2000/svg" viewBox="0 0 1440 320"><path fill="#0099ff" fill-opacity="1" d="M0,32L8,32C16,32,32,32,48,48C64,64,80,96,96,133.3C112,171,128,213,144,213.3C160,213,176,171,192,170.7C208,171,224,213,240,234.7C256,256,272,256,288,261.3C304,267,320,277,336,261.3C352,245,368,203,384,165.3C400,128,416,96,432,106.7C448,117,464,171,480,165.3C496,160,512,96,528,90.7C544,85,560,139,576,138.7C592,139,608,85,624,58.7C640,32,656,32,672,32C688,32,704,32,720,74.7C736,117,752,203,768,208C784,213,800,139,816,101.3C832,64,848,64,864,64C880,64,896,64,912,101.3C928,139,944,213,960,245.3C976,277,992,267,1008,240C1024,213,1040,171,1056,160C1072,149,1088,171,1104,170.7C1120,171,1136,149,1152,138.7C1168,128,1184,128,1200,117.3C1216,107,1232,85,1248,85.3C1264,85,1280,107,1296,117.3C1312,128,1328,128,1344,149.3C1360,171,1376,213,1392,218.7C1408,224,1424,192,1432,176L1440,160L1440,320L1432,320C1424,320,1408,320,1392,320C1376,320,1360,320,1344,320C1328,320,1312,320,1296,320C1280,320,1264,320,1248,320C1232,320,1216,320,1200,320C1184,320,1168,320,1152,320C1136,320,1120,320,1104,320C1088,320,1072,320,1056,320C1040,320,1024,320,1008,320C992,320,976,320,960,320C944,320,928,320,912,320C896,320,880,320,864,320C848,320,832,320,816,320C800,320,784,320,768,320C752,320,736,320,720,320C704,320,688,320,672,320C656,320,640,320,624,320C608,320,592,320,576,320C560,320,544,320,528,320C512,320,496,320,480,320C464,320,448,320,432,320C416,320,400,320,384,320C368,320,352,320,336,320C320,320,304,320,288,320C272,320,256,320,240,320C224,320,208,320,192,320C176,320,160,320,144,320C128,320,112,320,96,320C80,320,64,320,48,320C32,320,16,320,8,320L0,320Z"></path></svg>